HIERARCHY
ROOT Hips
{
	OFFSET 0.000000 0.000000 0.000000 
	CHANNELS 6 Xposition Yposition Zposition Zrotation Yrotation Xrotation
	JOINT LeftUpLeg
	{
		OFFSET 1.363060 -1.794630 0.839290 
		CHANNELS 3 Zrotation Yrotation Xrotation
		JOINT LeftLeg
		{
			OFFSET 2.448110 -6.726130 0.000000 
			CHANNELS 3 Zrotation Yrotation Xrotation
			JOINT LeftFoot
			{
				OFFSET 2.562200 -7.039590 0.000000 
				CHANNELS 3 Zrotation Yrotation Xrotation
				JOINT LeftToeBase
				{
					OFFSET 0.157640 -0.433110 2.322550 
					CHANNELS 3 Zrotation Yrotation Xrotation
					End Site
					{
						OFFSET 0.000000 0.000000 0.000000 
					}
				}
			}
		}
	}
	JOINT RightUpLeg
	{
		OFFSET -1.305520 -1.794630 0.839290 
		CHANNELS 3 Zrotation Yrotation Xrotation
		JOINT RightLeg
		{
			OFFSET -2.542530 -6.985550 0.000000 
			CHANNELS 3 Zrotation Yrotation Xrotation
			JOINT RightFoot
			{
				OFFSET -2.568260 -7.056230 0.000000 
				CHANNELS 3 Zrotation Yrotation Xrotation
				JOINT RightToeBase
				{
					OFFSET -0.164730 -0.452590 2.363150 
					CHANNELS 3 Zrotation Yrotation Xrotation
					End Site
					{
						OFFSET 0.000000 0.000000 0.000000 
					}
				}
			}
		}
	}
	JOINT Spine
	{
		OFFSET 0.028270 2.035590 -0.193380 
		CHANNELS 3 Zrotation Yrotation Xrotation
		JOINT Spine1
		{
			OFFSET 0.056720 2.048850 -0.042750 
			CHANNELS 3 Zrotation Yrotation Xrotation
			JOINT Neck1
			{
				OFFSET -0.054170 1.746240 0.172020 
				CHANNELS 3 Zrotation Yrotation Xrotation
				JOINT Head
				{
					OFFSET 0.104070 1.761360 -0.123970 
					CHANNELS 3 Zrotation Yrotation Xrotation
					End Site
					{
						OFFSET 0.000000 0.000000 0.000000 
					}
				}
			}
			JOINT LeftArm
			{
				OFFSET 3.362410 1.200890 -0.311210 
				CHANNELS 3 Zrotation Yrotation Xrotation
				JOINT LeftForeArm
				{
					OFFSET 4.983000 -0.000000 -0.000000 
					CHANNELS 3 Zrotation Yrotation Xrotation
					JOINT LeftHand
					{
						OFFSET 3.483560 -0.000000 -0.000000 
						CHANNELS 3 Zrotation Yrotation Xrotation
						JOINT LeftHandIndex1
						{
							OFFSET 0.715260 -0.000000 -0.000000 
							CHANNELS 3 Zrotation Yrotation Xrotation
							End Site
							{
								OFFSET 0.000000 0.000000 0.000000 
							}
						}
					}
				}
			}
			JOINT RightArm
			{
				OFFSET -3.136600 1.374050 -0.404650 
				CHANNELS 3 Zrotation Yrotation Xrotation
				JOINT RightForeArm
				{
					OFFSET -5.241900 -0.000000 -0.000000 
					CHANNELS 3 Zrotation Yrotation Xrotation
					JOINT RightHand
					{
						OFFSET -3.444170 -0.000000 -0.000000 
						CHANNELS 3 Zrotation Yrotation Xrotation
						JOINT RightHandIndex1
						{
							OFFSET -0.622530 -0.000000 -0.000000 
							CHANNELS 3 Zrotation Yrotation Xrotation
							End Site
							{
								OFFSET 0.000000 0.000000 0.000000 
							}
						}
					}
				}
			}
		}
	}
}
MOTION
Frames: 17
Frame Time: 0.041667
0.308690 17.768462 -36.791713 -4.135109 0.918199 3.306475 -13.902704 -10.279707 -10.006897 2.119748 10.605297 30.668695 0.530183 0.996863 -12.876669 0.034900 1.205200 3.313700 30.143768 2.878760 -7.640149 -2.080328 -8.749817 25.621692 -0.677231 -0.108808 -14.547617 0.000000 0.000000 0.000000 0.882031 -3.479545 -3.200403 -0.060276 -2.050890 -3.814343 7.434997 -12.307586 8.995750 1.369400 -5.804200 6.487300 -89.814440 10.430664 11.949945 14.514767 -23.642544 -2.635980 0.443114 -0.115796 10.165099 -7.125000 0.000000 0.000000 85.074364 1.162381 11.472818 -12.658312 22.812930 -2.404605 0.953683 0.621548 -14.589913 7.125000 0.000000 0.000000 
0.316010 17.762768 -36.787341 -4.141348 1.068441 3.344229 -13.905963 -10.338826 -9.968857 2.052751 10.500468 30.327686 0.454809 1.243143 -12.470402 0.029600 1.110000 3.051400 30.138232 2.832970 -7.803083 -2.120460 -8.842306 25.901912 -0.692152 -0.138452 -14.771010 0.000000 0.000000 0.000000 0.882013 -3.479404 -3.200429 -0.060277 -2.050747 -3.814329 7.434997 -12.307588 8.995755 1.369400 -5.804200 6.487300 -89.814443 10.430681 11.949943 14.514770 -23.642544 -2.635981 0.443114 -0.115796 10.165098 -7.125000 0.000000 0.000000 85.074363 1.162394 11.472819 -12.658311 22.812931 -2.404604 0.953684 0.621549 -14.589913 7.125000 0.000000 0.000000 
0.326381 17.762667 -36.772903 -4.000493 1.441344 3.526098 -14.057702 -10.438674 -10.046367 2.018711 10.446261 30.145730 0.489089 1.074623 -12.519038 0.010100 0.648900 1.783100 29.942072 2.783915 -8.038009 -2.125841 -8.856627 25.943106 -0.688633 -0.276046 -14.934113 0.000000 0.000000 0.000000 0.900914 -3.661354 -3.289794 0.033251 -2.137427 -3.807756 7.181655 -12.470991 9.278320 1.263400 -5.891700 6.560000 -89.709498 10.176291 12.191858 14.500112 -23.632110 -2.637729 0.443647 -0.113835 10.200547 -7.125000 0.000000 0.000000 85.135434 0.621766 11.500937 -12.739718 22.956338 -2.454209 0.938500 0.634766 -14.531162 7.125000 0.000000 0.000000 
0.327906 17.762158 -36.766701 -4.014830 1.422549 3.565412 -13.965221 -10.277790 -10.049948 1.965955 10.369910 29.889755 0.476796 1.193163 -12.643675 0.000200 0.087700 0.241100 30.036904 3.092022 -7.998386 -2.143459 -8.905452 26.094496 -0.685391 -0.464954 -15.173640 -0.034800 -1.204200 3.310800 1.241122 -3.562791 -3.265837 1.602350 -2.029538 -3.562482 6.638647 -12.324420 9.220830 1.106000 -5.882400 6.598100 -90.808549 9.387630 11.796374 14.122041 -23.177675 -2.514897 0.436070 -0.120912 10.877201 -7.125000 0.000000 0.000000 83.979349 0.574523 11.920914 -12.902481 23.166337 -2.505377 0.925096 0.677131 -15.089491 7.125000 0.000000 0.000000 
0.335024 17.766124 -36.757041 -3.910689 1.622667 3.677244 -14.057378 -10.179792 -10.062093 1.937671 10.307897 29.691193 0.522140 0.851520 -12.410169 0.014700 0.781600 2.148200 29.922025 3.232380 -8.064290 -2.143949 -8.916015 26.118789 -0.668065 -0.670423 -15.275938 -0.061200 -1.595900 4.390200 1.307773 -3.645718 -3.181981 1.982456 -2.061457 -3.083061 6.779349 -12.300458 9.180898 1.179500 -5.866200 6.654000 -90.952071 8.593114 11.743653 13.946201 -22.961519 -2.450544 0.439120 -0.121857 11.033453 -7.125000 0.000000 0.000000 83.845425 1.023018 11.828552 -12.760586 22.949316 -2.430856 0.948778 0.661381 -15.232944 7.125000 0.000000 0.000000 
0.343768 17.761955 -36.745755 -3.689519 1.628524 3.743098 -14.354334 -9.834470 -10.142730 1.886999 10.248024 29.484318 0.451933 1.271417 -12.505432 0.016200 -0.821300 -2.257300 29.655965 3.190892 -8.063090 -2.150630 -8.919269 26.138366 -0.685372 -0.593665 -15.363564 -0.093900 -1.976600 5.441000 1.396818 -3.700881 -3.149913 2.536153 -2.073532 -2.799948 6.688869 -12.218523 9.261494 1.191500 -5.843700 6.712600 -91.301321 8.254265 11.701357 13.957212 -23.025557 -2.466406 0.439275 -0.120878 11.209700 -7.125000 0.000000 0.000000 83.614496 1.067089 11.805858 -12.714862 22.867910 -2.402207 0.951797 0.670340 -15.109910 7.125000 0.000000 0.000000 
0.354749 17.769886 -36.735588 -3.589569 1.747855 3.849904 -14.478577 -9.928751 -10.137361 1.865653 10.203969 29.343480 0.485099 1.041103 -12.384606 0.000300 -0.104600 -0.287400 29.522619 3.221947 -8.111650 -2.138175 -8.894672 26.061590 -0.676408 -0.710317 -15.432813 -0.112700 -2.164100 5.959400 1.428570 -3.665300 -3.167126 2.745864 -2.049153 -2.688856 6.529488 -12.368733 9.484869 1.119700 -5.921000 6.806300 -91.337835 8.079328 12.205528 13.968703 -23.066945 -2.481254 0.438761 -0.123118 11.027255 -7.125000 0.000000 0.000000 83.436722 0.723473 12.433775 -12.807435 23.018470 -2.452496 0.931559 0.700124 -15.874721 7.125000 0.000000 0.000000 
0.370509 17.776190 -36.722268 -3.792423 1.922818 3.955101 -14.328424 -10.171660 -10.027206 1.826413 10.146326 29.158988 0.439072 1.284515 -12.362856 0.004100 -0.415700 -1.142200 29.696206 3.184159 -8.202103 -2.137004 -8.902184 26.076454 -0.670929 -0.783905 -15.479686 -0.118600 -2.220700 6.115900 1.446282 -3.685353 -3.207024 2.628999 -2.064755 -2.662304 6.216069 -12.478981 9.920205 0.966300 -5.972300 6.998100 -91.249491 7.728025 12.124831 13.831588 -22.858431 -2.431288 0.439491 -0.125949 11.167115 -7.125000 0.000000 0.000000 83.626955 0.564631 11.897749 -12.683268 22.827680 -2.393749 0.952571 0.670134 -15.384935 7.125000 0.000000 0.000000 
0.379660 17.771106 -36.719218 -3.910570 1.901003 4.018115 -14.274631 -10.134406 -10.050203 1.808272 10.123614 29.088819 0.397170 1.531316 -12.411534 0.008900 -0.609100 -1.673900 29.772828 3.279647 -8.231553 -2.117664 -8.863799 25.955059 -0.657476 -0.834235 -15.398135 -0.134600 -2.364300 6.513500 1.385736 -3.710115 -3.327326 2.287097 -2.086145 -3.116320 6.598713 -12.262361 9.988371 1.185900 -5.851100 7.028900 -90.900271 7.887293 12.405431 14.000006 -23.052403 -2.475097 0.437137 -0.121216 10.775792 -7.125000 0.000000 0.000000 84.004420 0.154685 11.805579 -12.496162 22.493024 -2.299578 0.970172 0.647655 -14.669902 7.125000 0.000000 0.000000 
0.390946 17.778427 -36.711490 -3.773466 1.959272 4.021394 -14.499880 -10.254437 -9.937596 1.779362 10.084719 28.967832 0.377766 1.696980 -12.574636 0.030000 -1.118100 -3.073700 29.572306 3.187118 -8.194121 -2.117091 -8.855288 25.939746 -0.655729 -0.880534 -15.446887 -0.141400 -2.423800 6.678400 1.309605 -3.822054 -3.440084 2.023634 -2.145050 -3.534677 6.369554 -12.095025 10.117155 1.062600 -5.769200 7.016500 -90.657912 8.153340 12.306515 14.183506 -23.302734 -2.559838 0.433801 -0.124644 10.790253 -7.125000 0.000000 0.000000 84.401281 -0.196133 11.920153 -12.368599 22.256813 -2.246598 0.971503 0.635654 -14.440317 7.125000 0.000000 0.000000 
0.396030 17.775986 -36.708338 -3.737978 1.883636 4.073443 -14.564979 -10.101277 -9.927610 1.762070 10.053491 28.869314 0.363578 1.728167 -12.459238 0.017000 -0.843000 -2.317000 29.517115 3.342093 -8.246665 -2.117949 -8.861763 25.955342 -0.634060 -1.020457 -15.405696 -0.170200 -2.657800 7.327500 1.342057 -3.854353 -3.425787 2.236197 -2.159073 -3.419486 6.567472 -11.991194 10.280420 1.186300 -5.707900 7.197000 -90.680321 7.731241 12.350359 14.213246 -23.354050 -2.567845 0.434233 -0.120014 10.336543 -7.125000 0.000000 0.000000 84.380232 -0.256706 12.128926 -12.310122 22.150382 -2.220501 0.967172 0.647440 -14.481409 7.125000 0.000000 0.000000 
0.405384 17.783205 -36.698578 -3.648111 2.234858 4.180007 -14.607257 -10.182190 -10.037803 1.739839 10.004344 28.712533 0.406024 1.443290 -12.316852 0.019100 -0.891500 -2.450400 29.432390 3.270200 -8.396170 -2.124106 -8.882878 26.021752 -0.620340 -1.272113 -15.627349 -0.170200 -2.657400 7.326300 1.433475 -3.883891 -3.519983 2.746489 -2.143944 -3.516651 6.248673 -11.928564 10.497620 1.113900 -5.716800 7.099700 -90.908673 7.802215 12.656494 14.131910 -23.269594 -2.555751 0.431630 -0.118390 10.496748 -7.125000 0.000000 0.000000 84.058199 -0.984854 12.354119 -12.314919 22.151540 -2.223695 0.969063 0.644333 -14.566385 7.125000 0.000000 0.000000 
0.415552 17.778833 -36.693392 -3.648724 2.132400 4.162050 -14.644300 -10.019710 -9.936459 1.722902 9.970882 28.612208 0.418604 1.393021 -12.364789 0.014200 -0.769500 -2.114800 29.435444 3.370751 -8.348216 -2.124720 -8.893172 26.051412 -0.593569 -1.497905 -15.659993 -0.146800 -2.468700 6.802900 1.501531 -3.848033 -3.485585 3.074784 -2.119193 -3.333689 6.124291 -11.793535 10.598809 1.064300 -5.655000 7.205300 -91.162050 7.456380 12.813439 14.389963 -23.668199 -2.643602 0.430977 -0.113783 10.369392 -7.125000 0.000000 0.000000 84.050602 -0.808759 11.905137 -12.141147 21.852935 -2.146283 0.973202 0.637668 -14.266321 7.125000 0.000000 0.000000 
0.422771 17.783002 -36.690748 -3.677863 2.201403 4.308379 -14.572221 -9.841758 -10.145103 1.706598 9.942277 28.515819 0.412028 1.387934 -12.255747 0.040100 -1.292800 -3.554800 29.466213 3.601494 -8.438348 -2.124551 -8.904511 26.075875 -0.589975 -1.624706 -15.812956 -0.172500 -2.675100 7.375600 1.535304 -3.918257 -3.503261 3.203741 -2.151457 -3.284214 6.067560 -11.552126 10.726168 1.059100 -5.538200 7.311400 -91.170324 7.427285 13.295728 14.661602 -24.084841 -2.773116 0.430953 -0.112776 9.758787 -7.125000 0.000000 0.000000 84.075502 -0.841147 12.542820 -12.045405 21.667834 -2.099886 0.971836 0.651594 -14.438305 7.125000 0.000000 0.000000 
0.431820 17.787679 -36.686173 -3.606808 2.114204 4.426652 -14.660158 -9.842541 -10.204339 1.696464 9.926356 28.468871 0.415942 1.401141 -12.348070 0.035900 -1.223400 -3.363800 29.347479 3.728387 -8.548922 -2.118453 -8.890589 26.032729 -0.577901 -1.703537 -15.794924 -0.157300 -2.555700 7.044200 1.501621 -3.648285 -3.660327 3.299869 -1.991755 -3.786770 5.807550 -11.596647 10.712225 0.891600 -5.566300 7.102900 -90.926817 7.773334 14.026170 14.800030 -24.269635 -2.828716 0.426966 -0.103765 9.463283 -7.125000 0.000000 0.000000 84.351803 -1.518675 11.154490 -11.765421 21.157260 -1.962931 0.999265 0.608553 -13.226751 7.125000 0.000000 0.000000 
0.440869 17.790018 -36.678344 -3.703691 2.141583 4.435145 -14.543515 -10.002131 -10.029584 1.702267 9.905077 28.417110 0.517530 0.806116 -12.244396 -0.000000 -0.040600 -0.111500 29.438964 3.742061 -8.493244 -2.109253 -8.880920 25.995592 -0.573687 -1.792292 -15.883732 -0.188700 -2.797400 7.715300 1.531187 -3.742243 -3.585556 3.308264 -2.048657 -3.336427 5.351522 -11.508638 11.145640 0.672200 -5.527000 7.277700 -90.908475 7.288051 14.211802 14.883930 -24.420364 -2.863289 0.431575 -0.101727 8.935908 -7.125000 0.000000 0.000000 84.513925 -1.302248 11.096741 -11.536316 20.795678 -1.887745 0.991807 0.606403 -13.182582 7.125000 0.000000 0.000000 
0.455307 17.791441 -36.667973 -3.745020 2.049875 4.562575 -14.565659 -10.056830 -10.022017 1.669462 9.884266 28.330370 0.447349 1.320038 -12.572481 0.011700 -0.697200 -1.916000 29.405694 3.785691 -8.602448 -2.110747 -8.886218 25.999805 -0.581057 -1.713603 -15.847867 -0.235700 -3.124600 8.625800 1.498697 -3.661896 -3.478916 3.098885 -2.033435 -2.873235 5.042698 -11.284191 11.415748 0.419200 -5.383400 7.651000 -90.848106 6.488682 14.473299 15.041002 -24.661052 -2.934528 0.435753 -0.105093 8.487363 -7.125000 0.000000 0.000000 84.848101 -0.867831 11.138448 -11.458831 20.667593 -1.849872 1.000447 0.607929 -13.086029 7.125000 0.000000 0.000000 
